<svg id="Слой_1" data-name="Слой 1" xmlns="http://www.w3.org/2000/svg" viewBox="0 0 303.72 40.2"><title>pp logo без ПК</title><path d="M69,2.76A59.68,59.68,0,0,1,79.5,2c5,0,8.74,1.06,11.14,3.08a10.66,10.66,0,0,1,3.7,8.34A11.44,11.44,0,0,1,91.1,22c-2.74,2.74-7.06,4-11.93,4a19.41,19.41,0,0,1-3.36-.22V40H69Zm6.83,17.58a13.92,13.92,0,0,0,3.36.28c5.15,0,8.29-2.52,8.29-6.94,0-4.2-2.91-6.44-7.67-6.44a19,19,0,0,0-4,.34Z" transform="translate(-20 -0.36)" style="fill:#0190d4"/><path d="M98.6,2.76A65.35,65.35,0,0,1,109,2c5.43,0,9.13.9,11.65,3a9.55,9.55,0,0,1,3.25,7.56A10.07,10.07,0,0,1,117.08,22v.17c2.69,1,4.31,3.64,5.26,7.28,1.18,4.7,2.18,9.07,3,10.53H118.2a53.32,53.32,0,0,1-2.52-8.9c-1.06-4.93-2.86-6.5-6.78-6.61h-3.47V40H98.6Zm6.83,16.69h4.09c4.65,0,7.56-2.46,7.56-6.22,0-4.14-2.91-6-7.39-6a19.81,19.81,0,0,0-4.26.34Z" transform="translate(-20 -0.36)" style="fill:#0190d4"/><path d="M135.67,2.26V40h-6.89V2.26Z" transform="translate(-20 -0.36)" style="fill:#0190d4"/><path d="M173.75,24.6c-.22-4.87-.5-10.75-.45-15.85h-.17c-1.23,4.59-2.8,9.69-4.48,14.45l-5.49,16.35h-5.32l-5-16.13c-1.46-4.82-2.8-10-3.81-14.67h-.11c-.17,4.93-.39,10.92-.67,16.07L147.37,40h-6.44l2.52-37.74h9.07l4.93,15.18c1.34,4.42,2.52,8.9,3.47,13.1h.17c1-4.09,2.3-8.74,3.75-13.16l5.21-15.12h9L181.2,40h-6.72Z" transform="translate(-20 -0.36)" style="fill:#0190d4"/><path d="M186.52,2.76A59.69,59.69,0,0,1,197,2c5,0,8.74,1.06,11.14,3.08a10.66,10.66,0,0,1,3.7,8.34A11.44,11.44,0,0,1,208.64,22c-2.74,2.74-7.06,4-11.93,4a19.42,19.42,0,0,1-3.36-.22V40h-6.83Zm6.83,17.58a13.92,13.92,0,0,0,3.36.28c5.15,0,8.29-2.52,8.29-6.94,0-4.2-2.91-6.44-7.67-6.44a19,19,0,0,0-4,.34Z" transform="translate(-20 -0.36)" style="fill:#0190d4"/><path d="M216.14,2.76A65.35,65.35,0,0,1,226.56,2c5.43,0,9.13.9,11.65,3a9.55,9.55,0,0,1,3.25,7.56A10.07,10.07,0,0,1,234.62,22v.17c2.69,1,4.31,3.64,5.26,7.28,1.18,4.7,2.18,9.07,3,10.53h-7.11a53.34,53.34,0,0,1-2.52-8.9c-1.06-4.93-2.86-6.5-6.78-6.61H223V40h-6.83ZM223,19.45h4.09c4.65,0,7.56-2.46,7.56-6.22,0-4.14-2.91-6-7.39-6a19.8,19.8,0,0,0-4.26.34Z" transform="translate(-20 -0.36)" style="fill:#0190d4"/><path d="M267.44,23.26H253.21V34.34h15.9V40H246.32V2.26h22V7.91H253.21v9.74h14.22Z" transform="translate(-20 -0.36)" style="fill:#0190d4"/><path d="M273.32,32.5a19.07,19.07,0,0,0,9.13,2.41c4.42,0,6.89-2.07,6.89-5.15,0-2.86-1.9-4.54-6.72-6.27-6.22-2.24-10.19-5.54-10.19-11,0-6.16,5.15-10.86,13.33-10.86a19.94,19.94,0,0,1,9.07,1.9l-1.68,5.54a16,16,0,0,0-7.5-1.79c-4.37,0-6.27,2.35-6.27,4.54,0,2.91,2.18,4.26,7.22,6.22,6.55,2.46,9.74,5.77,9.74,11.2,0,6-4.59,11.31-14.34,11.31a22.41,22.41,0,0,1-10.19-2.35Z" transform="translate(-20 -0.36)" style="fill:#0190d4"/><path d="M300.7,32.5a19.07,19.07,0,0,0,9.13,2.41c4.42,0,6.89-2.07,6.89-5.15,0-2.86-1.9-4.54-6.72-6.27-6.22-2.24-10.19-5.54-10.19-11,0-6.16,5.15-10.86,13.33-10.86a19.94,19.94,0,0,1,9.07,1.9l-1.68,5.54A16,16,0,0,0,313,7.3c-4.37,0-6.27,2.35-6.27,4.54,0,2.91,2.18,4.26,7.22,6.22,6.55,2.46,9.74,5.77,9.74,11.2,0,6-4.59,11.31-14.34,11.31a22.41,22.41,0,0,1-10.19-2.35Z" transform="translate(-20 -0.36)" style="fill:#0190d4"/><path d="M58.54,39.86c-6.89,0-13.8.36-20.66-.09-9.76-.64-17.75-9.44-17.88-19A19.86,19.86,0,0,1,37.31.51,20.17,20.17,0,0,1,59.23,15.42a15.61,15.61,0,0,1,.68,3.46c.08,5,0,9.92,0,15.66-5.33-3.72-10.13-7.1-15-10.42-1-.71-.7-1.38-.43-2.34.83-2.95-.16-5.3-3.18-6.23-2.34-.72-4.67-.12-5.79,2.24-1.39,2.93-.36,5.24,2.39,7,3.55,2.3,7,4.79,10.45,7.2l10.34,7.15Z" transform="translate(-20 -0.36)" style="fill:#0190d4"/></svg>