<?xml version="1.0" encoding="UTF-8"?>
<!DOCTYPE svg PUBLIC "-//W3C//DTD SVG 1.1//EN" "http://www.w3.org/Graphics/SVG/1.1/DTD/svg11.dtd">
<svg xmlns="http://www.w3.org/2000/svg" version="1.1" width="304px" height="40px" style="shape-rendering:geometricPrecision; text-rendering:geometricPrecision; image-rendering:optimizeQuality; fill-rule:evenodd; clip-rule:evenodd" xmlns:xlink="http://www.w3.org/1999/xlink">
<g><path style="opacity:0.946" fill="#c300ea" d="M 63.5,5.5 C 66.4475,5.22288 69.2809,5.55621 72,6.5C 75.1939,11.5545 77.8606,16.8878 80,22.5C 80.4994,16.8431 80.6661,11.1764 80.5,5.5C 82.5,5.5 84.5,5.5 86.5,5.5C 86.5,15.1667 86.5,24.8333 86.5,34.5C 83.7531,34.8134 81.0865,34.48 78.5,33.5C 75.3936,27.6209 72.5603,21.6209 70,15.5C 69.5005,21.8246 69.3338,28.1579 69.5,34.5C 67.5,34.5 65.5,34.5 63.5,34.5C 63.5,24.8333 63.5,15.1667 63.5,5.5 Z"/></g>
<g><path style="opacity:0.897" fill="#c300ea" d="M 145.5,5.5 C 150.844,5.33398 156.177,5.50065 161.5,6C 168.685,10.7931 169.352,16.4598 163.5,23C 159.94,24.2367 156.273,24.7367 152.5,24.5C 152.5,27.8333 152.5,31.1667 152.5,34.5C 150.167,34.5 147.833,34.5 145.5,34.5C 145.5,24.8333 145.5,15.1667 145.5,5.5 Z M 152.5,10.5 C 155.652,9.95855 158.152,10.9586 160,13.5C 160.189,17.1519 158.356,19.1519 154.5,19.5C 153.914,19.2907 153.414,18.9574 153,18.5C 152.503,15.854 152.336,13.1873 152.5,10.5 Z"/></g>
<g><path style="opacity:0.864" fill="#c300ea" d="M 96.5,13.5 C 107,11.6683 111.666,16.0016 110.5,26.5C 106.154,26.3343 101.821,26.501 97.5,27C 100.87,29.5057 104.537,30.1724 108.5,29C 109.833,30.6667 109.833,32.3333 108.5,34C 94.1162,36.9508 88.6162,31.4508 92,17.5C 93.3968,15.9297 94.8968,14.5964 96.5,13.5 Z M 98.5,18.5 C 101.022,18.1281 103.022,18.9614 104.5,21C 102.098,21.8141 99.7649,21.6474 97.5,20.5C 97.8627,19.8165 98.1961,19.1499 98.5,18.5 Z"/></g>
<g><path style="opacity:0.866" fill="#c300ea" d="M 111.5,14.5 C 113.948,13.5269 116.615,13.1936 119.5,13.5C 121.164,29.4905 122.83,29.4905 124.5,13.5C 126.833,13.5 129.167,13.5 131.5,13.5C 132.17,17.8509 133.004,22.1843 134,26.5C 134.9,22.1658 135.734,17.8324 136.5,13.5C 138.833,13.5 141.167,13.5 143.5,13.5C 142.003,20.4899 140.003,27.3233 137.5,34C 135.098,34.8141 132.765,34.6474 130.5,33.5C 129.512,30.5499 128.679,27.5499 128,24.5C 126.908,27.7095 125.741,30.8761 124.5,34C 122.19,34.4966 119.857,34.6633 117.5,34.5C 116.072,27.5593 114.072,20.8926 111.5,14.5 Z"/></g>
<g><path style="opacity:0.881" fill="#c300ea" d="M 169.5,13.5 C 171.5,13.5 173.5,13.5 175.5,13.5C 175.351,14.552 175.517,15.552 176,16.5C 177.805,13.9607 180.305,12.9607 183.5,13.5C 183.663,15.8568 183.497,18.1902 183,20.5C 180.684,19.6327 178.684,20.2993 177,22.5C 176.501,26.4862 176.334,30.4862 176.5,34.5C 174.167,34.5 171.833,34.5 169.5,34.5C 169.5,27.5 169.5,20.5 169.5,13.5 Z"/></g>
<g><path style="opacity:0.864" fill="#c300ea" d="M 190.5,13.5 C 201,11.6683 205.666,16.0016 204.5,26.5C 200.154,26.3343 195.821,26.501 191.5,27C 194.87,29.5057 198.537,30.1724 202.5,29C 203.833,30.6667 203.833,32.3333 202.5,34C 188.116,36.9508 182.616,31.4508 186,17.5C 187.397,15.9297 188.897,14.5964 190.5,13.5 Z M 192.5,18.5 C 195.022,18.1281 197.022,18.9614 198.5,21C 196.098,21.8141 193.765,21.6474 191.5,20.5C 191.863,19.8165 192.196,19.1499 192.5,18.5 Z"/></g>
<g><path style="opacity:0.839" fill="#c300ea" d="M 211.5,13.5 C 214.833,13.5 218.167,13.5 221.5,13.5C 221.819,15.7505 221.319,17.7505 220,19.5C 218.186,18.2404 216.353,18.2404 214.5,19.5C 217.086,21.0426 219.586,22.7093 222,24.5C 223.639,31.8652 220.639,35.1985 213,34.5C 206.819,35.5124 205.319,33.5124 208.5,28.5C 217.437,29.6907 217.77,28.524 209.5,25C 205.416,20.4022 206.083,16.5689 211.5,13.5 Z"/></g>
<g><path style="opacity:0.839" fill="#c300ea" d="M 230.5,13.5 C 233.833,13.5 237.167,13.5 240.5,13.5C 240.819,15.7505 240.319,17.7505 239,19.5C 237.186,18.2404 235.353,18.2404 233.5,19.5C 236.086,21.0426 238.586,22.7093 241,24.5C 242.639,31.8652 239.639,35.1985 232,34.5C 225.819,35.5124 224.319,33.5124 227.5,28.5C 236.437,29.6907 236.77,28.524 228.5,25C 224.416,20.4022 225.083,16.5689 230.5,13.5 Z"/></g>
</svg>
